<?xml version="1.0" standalone="no"?>
<!DOCTYPE svg PUBLIC "-//W3C//DTD SVG 20010904//EN"
 "http://www.w3.org/TR/2001/REC-SVG-20010904/DTD/svg10.dtd">
<svg version="1.0" xmlns="http://www.w3.org/2000/svg"
 width="700.000000pt" height="700.000000pt" viewBox="0 0 700.000000 700.000000"
 preserveAspectRatio="xMidYMid meet">
<metadata>
Created by potrace 1.14, written by Peter Selinger 2001-2017
</metadata>
<g transform="translate(0.000000,700.000000) scale(0.100000,-0.100000)"
fill="#000000" stroke="none">
<path d="M279 6996 c-2 -2 -29 -7 -59 -10 -123 -15 -180 -70 -205 -197 -20
-106 -21 -6463 0 -6577 24 -131 78 -181 220 -201 74 -10 3869 -9 3935 1 19 3
67 9 106 12 39 4 80 8 90 10 11 2 44 7 75 10 31 4 67 9 80 11 13 3 71 14 129
25 58 11 139 29 180 41 41 11 84 22 95 24 41 9 232 74 295 100 36 15 79 33 95
39 65 26 195 93 295 152 445 263 776 625 1020 1114 104 207 214 511 255 698
28 127 56 267 60 298 3 21 8 50 10 64 9 45 21 153 32 280 5 47 8 321 8 610 0
526 -5 652 -31 830 -4 25 -8 54 -10 65 -10 70 -16 106 -25 150 -6 28 -13 64
-15 80 -17 108 -110 419 -174 580 -56 144 -156 349 -215 441 -19 30 -35 59
-35 64 0 6 -4 10 -10 10 -5 0 -10 5 -10 11 0 11 -74 119 -129 189 -261 328
-539 555 -903 737 -69 35 -129 63 -133 63 -3 0 -25 8 -48 19 -69 30 -206 79
-302 106 -49 14 -103 29 -120 34 -36 12 -264 58 -320 67 -22 3 -67 9 -100 14
-33 5 -89 12 -125 15 -36 3 -83 9 -105 12 -43 7 -3899 16 -3906 9z m4546 -880
c235 -25 457 -108 670 -251 108 -72 279 -240 357 -350 312 -441 359 -1007 123
-1488 -101 -203 -241 -376 -416 -512 -85 -66 -272 -177 -319 -189 -3 -1 -31
-12 -64 -24 -64 -25 -184 -60 -231 -67 -16 -3 -55 -9 -85 -14 -30 -5 -282 -10
-559 -10 -278 -1 -506 -3 -507 -4 -1 -1 -4 -245 -7 -542 -3 -467 -6 -550 -21
-610 -9 -38 -19 -80 -22 -92 -10 -50 -68 -203 -105 -275 -335 -668 -1104 -977
-1801 -724 -524 189 -898 668 -955 1221 -11 111 -4 338 12 395 2 8 6 26 9 40
19 109 82 285 144 400 196 365 548 637 947 730 44 11 94 22 110 26 17 4 271 9
565 11 294 3 536 5 537 7 1 1 3 229 3 507 1 277 5 524 10 549 4 25 10 61 13
80 19 141 97 343 190 495 238 388 661 654 1100 691 39 4 73 7 74 8 5 4 164 -2
228 -8z"/>
<path d="M4491 5525 c-301 -66 -555 -289 -651 -574 -45 -134 -48 -181 -49
-684 l-2 -478 498 4 c274 2 514 7 533 11 365 76 627 334 705 696 21 96 14 293
-14 395 -82 299 -317 533 -618 616 -98 28 -305 35 -402 14z"/>
<path d="M2160 3190 c-295 -61 -543 -273 -647 -554 -38 -102 -51 -188 -49
-315 2 -69 6 -139 10 -156 54 -240 185 -434 381 -563 95 -63 197 -103 325
-130 47 -9 253 -9 314 1 106 17 261 85 352 152 142 107 258 261 309 410 50
143 53 192 55 698 l1 478 -483 -2 c-416 -1 -495 -4 -568 -19z"/>
</g>
</svg>
